<svg width="41" height="41" viewBox="0 0 41 41" fill="none" xmlns="http://www.w3.org/2000/svg">
<path d="M41 20.6213C41 9.36641 31.8752 0.242538 20.6193 0.242538C9.36333 0.242538 0.238586 9.36641 0.238586 20.6213C0.238586 31.8761 9.36333 41 20.6193 41C31.8752 41 41 31.8761 41 20.6213Z" fill="url(#paint0_linear_138_176)"/>
<path d="M35.9585 7.21421C32.9872 12.6682 28.785 18.2938 23.5343 23.544C18.2836 28.7942 12.6574 32.9879 7.21095 35.9589C6.86948 35.6622 6.53785 35.3529 6.21605 35.0312C4.27092 33.1512 2.71958 30.9027 1.65248 28.417C0.585387 25.9313 0.0238948 23.258 0.000746193 20.5531C-0.0224024 17.8482 0.493256 15.1657 1.51765 12.6621C2.54205 10.1585 4.05468 7.88382 5.96736 5.9708C7.88003 4.05778 10.1545 2.54466 12.658 1.51966C15.1616 0.494664 17.8442 -0.021693 20.5494 0.000698232C23.2546 0.0230895 25.9283 0.583781 28.4145 1.65008C30.9008 2.71638 33.1499 4.26694 35.0306 6.21136C35.3524 6.53313 35.6617 6.86741 35.9585 7.21421Z" fill="white" fill-opacity="0.063"/>
<path d="M25.4463 9.89563H15.7923C14.2276 9.89563 12.727 10.5171 11.6206 11.6234C10.5142 12.7297 9.89264 14.2302 9.89264 15.7947V25.4478C9.89264 27.0124 10.5142 28.5128 11.6206 29.6191C12.727 30.7254 14.2276 31.3469 15.7923 31.3469H25.4463C27.011 31.3469 28.5116 30.7254 29.618 29.6191C30.7244 28.5128 31.346 27.0124 31.346 25.4478V15.7947C31.346 14.2302 30.7244 12.7297 29.618 11.6234C28.5116 10.5171 27.011 9.89563 25.4463 9.89563ZM29.4688 24.6005C29.4688 25.8919 28.9558 27.1305 28.0425 28.0437C27.1292 28.9569 25.8905 29.4699 24.5989 29.4699H16.6397C15.3481 29.4699 14.1095 28.9569 13.1962 28.0437C12.2829 27.1305 11.7698 25.8919 11.7698 24.6005V16.6421C11.7698 15.3506 12.2829 14.112 13.1962 13.1988C14.1095 12.2856 15.3481 11.7726 16.6397 11.7726H24.5989C25.8905 11.7726 27.1292 12.2856 28.0425 13.1988C28.9558 14.112 29.4688 15.3506 29.4688 16.6421V24.6005Z" fill="white"/>
<path d="M24.5319 16.7493L24.4809 16.6984L24.438 16.6555C23.4241 15.6451 22.0508 15.0781 20.6193 15.0788C19.8965 15.0837 19.1816 15.231 18.5157 15.5122C17.8498 15.7934 17.2458 16.2031 16.7383 16.7178C16.2307 17.2325 15.8296 17.8422 15.5578 18.5119C15.286 19.1817 15.1488 19.8985 15.1541 20.6213C15.153 22.0881 15.7313 23.4961 16.7631 24.5388C17.2685 25.0503 17.8707 25.456 18.5347 25.7323C19.1986 26.0085 19.9109 26.1497 20.6301 26.1477C21.7087 26.125 22.7575 25.7891 23.6485 25.1807C24.5395 24.5723 25.2341 23.7178 25.6478 22.7215C26.0614 21.7251 26.1762 20.6299 25.978 19.5695C25.7799 18.509 25.2774 17.5291 24.5319 16.7493ZM20.6193 24.2573C19.898 24.2674 19.19 24.0627 18.5854 23.6694C17.9807 23.2761 17.5067 22.7118 17.2237 22.0484C16.9406 21.3849 16.8613 20.6523 16.9958 19.9437C17.1303 19.235 17.4725 18.5824 17.979 18.0688C18.4855 17.5552 19.1333 17.2038 19.84 17.0593C20.5467 16.9148 21.2805 16.9838 21.9479 17.2574C22.6153 17.5311 23.1863 17.997 23.5882 18.596C23.99 19.195 24.2046 19.9 24.2047 20.6213C24.2083 21.0955 24.1183 21.5657 23.94 22.0051C23.7617 22.4445 23.4985 22.8445 23.1656 23.1822C22.8326 23.5198 22.4363 23.7886 21.9994 23.9731C21.5625 24.1575 21.0936 24.2541 20.6193 24.2573ZM27.707 14.8241C27.7084 14.9961 27.6759 15.1668 27.6112 15.3262C27.5466 15.4857 27.4511 15.6309 27.3303 15.7534C27.2095 15.876 27.0657 15.9735 26.9072 16.0404C26.7486 16.1073 26.5785 16.1423 26.4064 16.1433C26.2357 16.1432 26.0668 16.1093 25.9094 16.0435C25.7519 15.9777 25.6091 15.8813 25.4892 15.7599C25.3076 15.5756 25.184 15.342 25.1338 15.0881C25.0837 14.8342 25.1091 14.5712 25.2071 14.3317C25.305 14.0921 25.4711 13.8866 25.6848 13.7406C25.8984 13.5945 26.1503 13.5144 26.4091 13.5102C26.7119 13.5101 27.0052 13.6164 27.2377 13.8105L27.2645 13.8373C27.3078 13.8725 27.3473 13.912 27.3825 13.9553L27.412 13.9875C27.604 14.2239 27.7082 14.5195 27.707 14.8241Z" fill="white"/>
<defs>
<linearGradient id="paint0_linear_138_176" x1="6.20798" y1="6.21136" x2="35.0278" y2="35.034" gradientUnits="userSpaceOnUse">
<stop stop-color="#FAE100"/>
<stop offset="0.15" stop-color="#FCB720"/>
<stop offset="0.3" stop-color="#FF7950"/>
<stop offset="0.5" stop-color="#FF1C74"/>
<stop offset="1" stop-color="#6C1CD1"/>
</linearGradient>
</defs>
</svg>
