<svg width="1252" height="400" viewBox="0 0 1252 400" fill="none" xmlns="http://www.w3.org/2000/svg">
<path d="M836.544 53.4595C835.48 51.8963 834.948 51.1148 835.256 50.4993C835.564 49.8839 836.509 49.8422 838.398 49.7588L838.887 49.7372C839.424 49.7135 839.692 49.7017 839.922 49.5886C840.152 49.4756 840.317 49.2743 840.648 48.8714L840.949 48.5047C842.111 47.0873 842.692 46.3785 843.399 46.4947C844.106 46.6109 844.47 47.475 845.199 49.2034L845.387 49.6506C845.594 50.1417 845.698 50.3873 845.887 50.5692C846.076 50.7511 846.329 50.8487 846.836 51.044L847.297 51.2217C849.08 51.9088 849.972 52.2523 850.1 52.9396C850.229 53.6268 849.509 54.2026 848.07 55.3542L847.698 55.6521C847.289 55.9794 847.084 56.143 846.972 56.3684C846.859 56.5939 846.85 56.8556 846.833 57.3791L846.817 57.8557C846.756 59.6978 846.726 60.6189 846.099 60.9274C845.471 61.2359 844.662 60.7276 843.044 59.711L842.626 59.448C842.166 59.1591 841.936 59.0146 841.677 58.972C841.418 58.9295 841.16 58.9936 840.642 59.1219L840.171 59.2387C838.351 59.6901 837.441 59.9158 836.924 59.4192C836.408 58.9227 836.628 58.0327 837.067 56.2528L837.181 55.7923C837.305 55.2866 837.368 55.0337 837.321 54.7819C837.274 54.5302 837.122 54.3081 836.82 53.8639L836.544 53.4595Z" fill="white"/>
<path d="M585.544 179.46C584.48 177.896 583.948 177.115 584.256 176.499C584.564 175.884 585.509 175.842 587.398 175.759L587.887 175.737C588.424 175.714 588.692 175.702 588.922 175.589C589.152 175.476 589.317 175.274 589.648 174.872L589.949 174.505C591.111 173.087 591.692 172.379 592.399 172.495C593.106 172.611 593.47 173.475 594.199 175.204L594.387 175.651C594.594 176.142 594.698 176.387 594.887 176.569C595.076 176.751 595.329 176.849 595.836 177.044L596.297 177.222C598.08 177.909 598.972 178.252 599.1 178.94C599.229 179.627 598.509 180.203 597.07 181.354L596.698 181.652C596.289 181.979 596.084 182.143 595.972 182.369C595.859 182.594 595.85 182.856 595.833 183.379L595.817 183.856C595.756 185.698 595.726 186.619 595.099 186.928C594.471 187.236 593.662 186.728 592.044 185.711L591.626 185.448C591.166 185.159 590.936 185.015 590.677 184.972C590.418 184.93 590.16 184.994 589.642 185.122L589.171 185.239C587.351 185.69 586.441 185.916 585.924 185.419C585.408 184.923 585.628 184.033 586.067 182.253L586.181 181.792C586.305 181.287 586.368 181.034 586.321 180.782C586.274 180.53 586.122 180.308 585.82 179.864L585.544 179.46Z" fill="white"/>
<path d="M627.544 389.46C626.48 387.896 625.948 387.115 626.256 386.499C626.564 385.884 627.509 385.842 629.398 385.759L629.887 385.737C630.424 385.714 630.692 385.702 630.922 385.589C631.152 385.476 631.317 385.274 631.648 384.872L631.949 384.505C633.111 383.087 633.692 382.379 634.399 382.495C635.106 382.611 635.47 383.475 636.199 385.204L636.387 385.651C636.594 386.142 636.698 386.387 636.887 386.569C637.076 386.751 637.329 386.849 637.836 387.044L638.297 387.222C640.08 387.909 640.972 388.252 641.1 388.94C641.229 389.627 640.509 390.203 639.07 391.354L638.698 391.652C638.289 391.979 638.084 392.143 637.972 392.369C637.859 392.594 637.85 392.856 637.833 393.379L637.817 393.856C637.756 395.698 637.726 396.619 637.099 396.928C636.471 397.236 635.662 396.728 634.044 395.711L633.626 395.448C633.166 395.159 632.936 395.015 632.677 394.972C632.418 394.93 632.16 394.994 631.642 395.122L631.171 395.239C629.351 395.69 628.441 395.916 627.924 395.419C627.408 394.923 627.628 394.033 628.067 392.253L628.181 391.792C628.305 391.287 628.368 391.034 628.321 390.782C628.274 390.53 628.122 390.308 627.82 389.864L627.544 389.46Z" fill="white"/>
<path d="M1140.54 369.46C1139.48 367.896 1138.95 367.115 1139.26 366.499C1139.56 365.884 1140.51 365.842 1142.4 365.759L1142.89 365.737C1143.42 365.714 1143.69 365.702 1143.92 365.589C1144.15 365.476 1144.32 365.274 1144.65 364.872L1144.95 364.505C1146.11 363.087 1146.69 362.379 1147.4 362.495C1148.11 362.611 1148.47 363.475 1149.2 365.204L1149.39 365.651C1149.59 366.142 1149.7 366.387 1149.89 366.569C1150.08 366.751 1150.33 366.849 1150.84 367.044L1151.3 367.222C1153.08 367.909 1153.97 368.252 1154.1 368.94C1154.23 369.627 1153.51 370.203 1152.07 371.354L1151.7 371.652C1151.29 371.979 1151.08 372.143 1150.97 372.369C1150.86 372.594 1150.85 372.856 1150.83 373.379L1150.82 373.856C1150.76 375.698 1150.73 376.619 1150.1 376.928C1149.47 377.236 1148.66 376.728 1147.04 375.711L1146.63 375.448C1146.17 375.159 1145.94 375.015 1145.68 374.972C1145.42 374.93 1145.16 374.994 1144.64 375.122L1144.17 375.239C1142.35 375.69 1141.44 375.916 1140.92 375.419C1140.41 374.923 1140.63 374.033 1141.07 372.253L1141.18 371.792C1141.31 371.287 1141.37 371.034 1141.32 370.782C1141.27 370.53 1141.12 370.308 1140.82 369.864L1140.54 369.46Z" fill="white"/>
<path d="M676.544 87.4595C675.48 85.8963 674.948 85.1148 675.256 84.4993C675.564 83.8839 676.509 83.8422 678.398 83.7588L678.887 83.7372C679.424 83.7135 679.692 83.7017 679.922 83.5886C680.152 83.4756 680.317 83.2743 680.648 82.8714L680.949 82.5047C682.111 81.0873 682.692 80.3785 683.399 80.4947C684.106 80.6109 684.47 81.475 685.199 83.2034L685.387 83.6506C685.594 84.1417 685.698 84.3873 685.887 84.5692C686.076 84.7511 686.329 84.8487 686.836 85.044L687.297 85.2217C689.08 85.9088 689.972 86.2523 690.1 86.9396C690.229 87.6268 689.509 88.2026 688.07 89.3542L687.698 89.6521C687.289 89.9794 687.084 90.143 686.972 90.3684C686.859 90.5939 686.85 90.8556 686.833 91.3791L686.817 91.8557C686.756 93.6978 686.726 94.6189 686.099 94.9274C685.471 95.2359 684.662 94.7276 683.044 93.711L682.626 93.448C682.166 93.1591 681.936 93.0146 681.677 92.972C681.418 92.9295 681.16 92.9936 680.642 93.1219L680.171 93.2387C678.351 93.6901 677.441 93.9158 676.924 93.4192C676.408 92.9227 676.628 92.0327 677.067 90.2528L677.181 89.7923C677.305 89.2866 677.368 89.0337 677.321 88.7819C677.274 88.5302 677.122 88.3081 676.82 87.8639L676.544 87.4595Z" fill="white"/>
<path d="M22.5444 314.46C21.4799 312.896 20.9477 312.115 21.256 311.499C21.5643 310.884 22.509 310.842 24.3983 310.759L24.8871 310.737C25.424 310.714 25.6924 310.702 25.9222 310.589C26.1521 310.476 26.3172 310.274 26.6476 309.872L26.9484 309.505C28.111 308.087 28.6924 307.379 29.3992 307.495C30.106 307.611 30.4703 308.475 31.1987 310.204L31.3872 310.651C31.5942 311.142 31.6977 311.387 31.8868 311.569C32.076 311.751 32.3293 311.849 32.836 312.044L33.2972 312.222C35.0802 312.909 35.9717 313.252 36.1002 313.94C36.2287 314.627 35.5092 315.203 34.0702 316.354L33.6978 316.652C33.2889 316.979 33.0844 317.143 32.9714 317.369C32.8585 317.594 32.8499 317.856 32.8327 318.379L32.817 318.856C32.7563 320.698 32.7259 321.619 32.0986 321.928C31.4712 322.236 30.6622 321.728 29.0444 320.711L28.6258 320.448C28.166 320.159 27.9362 320.015 27.6772 319.972C27.4183 319.93 27.1596 319.994 26.6423 320.122L26.1713 320.239C24.3509 320.69 23.4406 320.916 22.9243 320.419C22.4081 319.923 22.6276 319.033 23.0668 317.253L23.1804 316.792C23.3052 316.287 23.3676 316.034 23.3206 315.782C23.2735 315.53 23.1222 315.308 22.8198 314.864L22.5444 314.46Z" fill="white"/>
<path d="M64.2105 90C64.2105 51.6954 88.2445 18.9257 122 5.95607C112.022 2.12143 101.205 0 89.8947 0C40.3274 0 0 40.3746 0 90C0 139.625 40.3274 180 89.8947 180C101.205 180 112.022 177.879 122 174.044C88.2445 161.074 64.2105 128.305 64.2105 90Z" fill="white"/>
<path d="M428.544 46.4595C427.48 44.8963 426.948 44.1148 427.256 43.4993C427.564 42.8839 428.509 42.8422 430.398 42.7588L430.887 42.7372C431.424 42.7135 431.692 42.7017 431.922 42.5886C432.152 42.4756 432.317 42.2743 432.648 41.8714L432.949 41.5047C434.111 40.0873 434.692 39.3785 435.399 39.4947C436.106 39.6109 436.47 40.475 437.199 42.2034L437.387 42.6506C437.594 43.1417 437.698 43.3873 437.887 43.5692C438.076 43.7511 438.329 43.8487 438.836 44.044L439.297 44.2217C441.08 44.9088 441.972 45.2523 442.1 45.9396C442.229 46.6268 441.509 47.2026 440.07 48.3542L439.698 48.6521C439.289 48.9794 439.084 49.143 438.972 49.3684C438.859 49.5939 438.85 49.8556 438.833 50.3791L438.817 50.8557C438.756 52.6978 438.726 53.6189 438.099 53.9274C437.471 54.2359 436.662 53.7276 435.044 52.711L434.626 52.448C434.166 52.1591 433.936 52.0146 433.677 51.972C433.418 51.9295 433.16 51.9936 432.642 52.1219L432.171 52.2387C430.351 52.6901 429.441 52.9158 428.924 52.4192C428.408 51.9227 428.628 51.0327 429.067 49.2528L429.181 48.7923C429.305 48.2866 429.368 48.0337 429.321 47.7819C429.274 47.5302 429.122 47.3081 428.82 46.8639L428.544 46.4595Z" fill="white"/>
<path d="M1236.54 131.46C1235.48 129.896 1234.95 129.115 1235.26 128.499C1235.56 127.884 1236.51 127.842 1238.4 127.759L1238.89 127.737C1239.42 127.714 1239.69 127.702 1239.92 127.589C1240.15 127.476 1240.32 127.274 1240.65 126.872L1240.95 126.505C1242.11 125.087 1242.69 124.379 1243.4 124.495C1244.11 124.611 1244.47 125.475 1245.2 127.204L1245.39 127.651C1245.59 128.142 1245.7 128.387 1245.89 128.569C1246.08 128.751 1246.33 128.849 1246.84 129.044L1247.3 129.222C1249.08 129.909 1249.97 130.252 1250.1 130.94C1250.23 131.627 1249.51 132.203 1248.07 133.354L1247.7 133.652C1247.29 133.979 1247.08 134.143 1246.97 134.369C1246.86 134.594 1246.85 134.856 1246.83 135.379L1246.82 135.856C1246.76 137.698 1246.73 138.619 1246.1 138.928C1245.47 139.236 1244.66 138.728 1243.04 137.711L1242.63 137.448C1242.17 137.159 1241.94 137.015 1241.68 136.972C1241.42 136.93 1241.16 136.994 1240.64 137.122L1240.17 137.239C1238.35 137.69 1237.44 137.916 1236.92 137.419C1236.41 136.923 1236.63 136.033 1237.07 134.253L1237.18 133.792C1237.31 133.287 1237.37 133.034 1237.32 132.782C1237.27 132.53 1237.12 132.308 1236.82 131.864L1236.54 131.46Z" fill="white"/>
<path d="M947.544 19.4595C946.48 17.8963 945.948 17.1148 946.256 16.4993C946.564 15.8839 947.509 15.8422 949.398 15.7588L949.887 15.7372C950.424 15.7135 950.692 15.7017 950.922 15.5886C951.152 15.4756 951.317 15.2743 951.648 14.8714L951.949 14.5047C953.111 13.0873 953.692 12.3785 954.399 12.4947C955.106 12.6109 955.47 13.475 956.199 15.2034L956.387 15.6506C956.594 16.1417 956.698 16.3873 956.887 16.5692C957.076 16.7511 957.329 16.8487 957.836 17.044L958.297 17.2217C960.08 17.9088 960.972 18.2523 961.1 18.9396C961.229 19.6268 960.509 20.2026 959.07 21.3542L958.698 21.6521C958.289 21.9794 958.084 22.143 957.972 22.3684C957.859 22.5939 957.85 22.8556 957.833 23.3791L957.817 23.8557C957.756 25.6978 957.726 26.6189 957.099 26.9274C956.471 27.2359 955.662 26.7276 954.044 25.711L953.626 25.448C953.166 25.1591 952.936 25.0146 952.677 24.972C952.418 24.9295 952.16 24.9936 951.642 25.1219L951.171 25.2387C949.351 25.6901 948.441 25.9158 947.924 25.4192C947.408 24.9227 947.628 24.0327 948.067 22.2528L948.181 21.7923C948.305 21.2866 948.368 21.0337 948.321 20.7819C948.274 20.5302 948.122 20.3081 947.82 19.8639L947.544 19.4595Z" fill="white"/>
<path d="M237.544 121.46C236.48 119.896 235.948 119.115 236.256 118.499C236.564 117.884 237.509 117.842 239.398 117.759L239.887 117.737C240.424 117.714 240.692 117.702 240.922 117.589C241.152 117.476 241.317 117.274 241.648 116.872L241.949 116.505C243.111 115.087 243.692 114.379 244.399 114.495C245.106 114.611 245.47 115.475 246.199 117.204L246.387 117.651C246.594 118.142 246.698 118.387 246.887 118.569C247.076 118.751 247.329 118.849 247.836 119.044L248.297 119.222C250.08 119.909 250.972 120.252 251.1 120.94C251.229 121.627 250.509 122.203 249.07 123.354L248.698 123.652C248.289 123.979 248.084 124.143 247.972 124.369C247.859 124.594 247.85 124.856 247.833 125.379L247.817 125.856C247.756 127.698 247.726 128.619 247.099 128.928C246.471 129.236 245.662 128.728 244.044 127.711L243.626 127.448C243.166 127.159 242.936 127.015 242.677 126.972C242.418 126.93 242.16 126.994 241.642 127.122L241.171 127.239C239.351 127.69 238.441 127.916 237.924 127.419C237.408 126.923 237.628 126.033 238.067 124.253L238.181 123.792C238.305 123.287 238.368 123.034 238.321 122.782C238.274 122.53 238.122 122.308 237.82 121.864L237.544 121.46Z" fill="white"/>
<path d="M350.544 349.46C349.48 347.896 348.948 347.115 349.256 346.499C349.564 345.884 350.509 345.842 352.398 345.759L352.887 345.737C353.424 345.714 353.692 345.702 353.922 345.589C354.152 345.476 354.317 345.274 354.648 344.872L354.949 344.505C356.111 343.087 356.692 342.379 357.399 342.495C358.106 342.611 358.47 343.475 359.199 345.204L359.387 345.651C359.594 346.142 359.698 346.387 359.887 346.569C360.076 346.751 360.329 346.849 360.836 347.044L361.297 347.222C363.08 347.909 363.972 348.252 364.1 348.94C364.229 349.627 363.509 350.203 362.07 351.354L361.698 351.652C361.289 351.979 361.084 352.143 360.972 352.369C360.859 352.594 360.85 352.856 360.833 353.379L360.817 353.856C360.756 355.698 360.726 356.619 360.099 356.928C359.471 357.236 358.662 356.728 357.044 355.711L356.626 355.448C356.166 355.159 355.936 355.015 355.677 354.972C355.418 354.93 355.16 354.994 354.642 355.122L354.171 355.239C352.351 355.69 351.441 355.916 350.924 355.419C350.408 354.923 350.628 354.033 351.067 352.253L351.181 351.792C351.305 351.287 351.368 351.034 351.321 350.782C351.274 350.53 351.122 350.308 350.82 349.864L350.544 349.46Z" fill="white"/>
</svg>
