<svg width="368" height="442" viewBox="0 0 368 442" fill="none" xmlns="http://www.w3.org/2000/svg">
<path d="M11.5445 47.4596C10.48 45.8964 9.9478 45.1149 10.2561 44.4994C10.5644 43.884 11.5091 43.8423 13.3984 43.7589L13.8872 43.7373C14.4241 43.7136 14.6925 43.7018 14.9223 43.5887C15.1522 43.4757 15.3173 43.2744 15.6477 42.8715L15.9485 42.5048C17.1111 41.0874 17.6925 40.3786 18.3993 40.4948C19.1061 40.611 19.4704 41.4751 20.1988 43.2035L20.3873 43.6507C20.5943 44.1418 20.6978 44.3874 20.8869 44.5693C21.0761 44.7512 21.3294 44.8488 21.8361 45.0441L22.2973 45.2218C24.0803 45.9089 24.9718 46.2524 25.1003 46.9397C25.2288 47.6269 24.5093 48.2027 23.0703 49.3543L22.6979 49.6522C22.289 49.9795 22.0845 50.1431 21.9715 50.3685C21.8586 50.594 21.85 50.8557 21.8328 51.3792L21.8171 51.8558C21.7564 53.6979 21.726 54.619 21.0987 54.9275C20.4713 55.236 19.6623 54.7277 18.0445 53.7111L17.6259 53.4481C17.1661 53.1592 16.9363 53.0147 16.6773 52.9721C16.4184 52.9296 16.1597 52.9937 15.6424 53.122L15.1714 53.2388C13.351 53.6902 12.4407 53.9159 11.9244 53.4193C11.4082 52.9228 11.6277 52.0328 12.0669 50.2529L12.1805 49.7924C12.3053 49.2867 12.3677 49.0338 12.3207 48.782C12.2736 48.5303 12.1223 48.3082 11.8199 47.864L11.5445 47.4596Z" fill="white"/>
<path d="M342.544 67.4596C341.48 65.8964 340.948 65.1149 341.256 64.4994C341.564 63.884 342.509 63.8423 344.398 63.7589L344.887 63.7373C345.424 63.7136 345.692 63.7018 345.922 63.5887C346.152 63.4757 346.317 63.2744 346.648 62.8715L346.949 62.5048C348.111 61.0874 348.692 60.3786 349.399 60.4948C350.106 60.611 350.47 61.4751 351.199 63.2035L351.387 63.6507C351.594 64.1418 351.698 64.3874 351.887 64.5693C352.076 64.7512 352.329 64.8488 352.836 65.0441L353.297 65.2218C355.08 65.9089 355.972 66.2524 356.1 66.9397C356.229 67.6269 355.509 68.2027 354.07 69.3543L353.698 69.6522C353.289 69.9795 353.084 70.1431 352.972 70.3685C352.859 70.594 352.85 70.8557 352.833 71.3792L352.817 71.8558C352.756 73.6979 352.726 74.619 352.099 74.9275C351.471 75.236 350.662 74.7277 349.044 73.7111L348.626 73.4481C348.166 73.1592 347.936 73.0147 347.677 72.9721C347.418 72.9296 347.16 72.9937 346.642 73.122L346.171 73.2388C344.351 73.6902 343.441 73.9159 342.924 73.4193C342.408 72.9228 342.628 72.0328 343.067 70.2529L343.181 69.7924C343.305 69.2867 343.368 69.0338 343.321 68.782C343.274 68.5303 343.122 68.3082 342.82 67.864L342.544 67.4596Z" fill="white"/>
<path d="M4.54447 277.46C3.48003 275.896 2.9478 275.115 3.25612 274.499C3.56444 273.884 4.50908 273.842 6.39838 273.759L6.88717 273.737C7.42407 273.714 7.69249 273.702 7.92235 273.589C8.15217 273.476 8.31733 273.274 8.64772 272.872L8.94853 272.505C10.1111 271.087 10.6925 270.379 11.3993 270.495C12.1061 270.611 12.4704 271.475 13.1988 273.204L13.3873 273.651C13.5943 274.142 13.6978 274.387 13.8869 274.569C14.0761 274.751 14.3294 274.849 14.8361 275.044L15.2973 275.222C17.0803 275.909 17.9718 276.252 18.1003 276.94C18.2288 277.627 17.5093 278.203 16.0703 279.354L15.6979 279.652C15.289 279.979 15.0845 280.143 14.9715 280.369C14.8586 280.594 14.85 280.856 14.8328 281.379L14.8171 281.856C14.7564 283.698 14.726 284.619 14.0987 284.928C13.4713 285.236 12.6623 284.728 11.0445 283.711L10.6259 283.448C10.1661 283.159 9.93626 283.015 9.67732 282.972C9.41838 282.93 9.15972 282.994 8.64241 283.122L8.17142 283.239C6.35098 283.69 5.44069 283.916 4.92443 283.419C4.40815 282.923 4.62774 282.033 5.06692 280.253L5.18054 279.792C5.30534 279.287 5.36774 279.034 5.32066 278.782C5.27357 278.53 5.12234 278.308 4.81985 277.864L4.54447 277.46Z" fill="white"/>
<path d="M342.544 235.46C341.48 233.896 340.948 233.115 341.256 232.499C341.564 231.884 342.509 231.842 344.398 231.759L344.887 231.737C345.424 231.714 345.692 231.702 345.922 231.589C346.152 231.476 346.317 231.274 346.648 230.872L346.949 230.505C348.111 229.087 348.692 228.379 349.399 228.495C350.106 228.611 350.47 229.475 351.199 231.204L351.387 231.651C351.594 232.142 351.698 232.387 351.887 232.569C352.076 232.751 352.329 232.849 352.836 233.044L353.297 233.222C355.08 233.909 355.972 234.252 356.1 234.94C356.229 235.627 355.509 236.203 354.07 237.354L353.698 237.652C353.289 237.979 353.084 238.143 352.972 238.369C352.859 238.594 352.85 238.856 352.833 239.379L352.817 239.856C352.756 241.698 352.726 242.619 352.099 242.928C351.471 243.236 350.662 242.728 349.044 241.711L348.626 241.448C348.166 241.159 347.936 241.015 347.677 240.972C347.418 240.93 347.16 240.994 346.642 241.122L346.171 241.239C344.351 241.69 343.441 241.916 342.924 241.419C342.408 240.923 342.628 240.033 343.067 238.253L343.181 237.792C343.305 237.287 343.368 237.034 343.321 236.782C343.274 236.53 343.122 236.308 342.82 235.864L342.544 235.46Z" fill="white"/>
<path d="M179.544 9.45957C178.48 7.89643 177.948 7.11487 178.256 6.49942C178.564 5.88398 179.509 5.84229 181.398 5.75893L181.887 5.73735C182.424 5.71361 182.692 5.70181 182.922 5.58873C183.152 5.47571 183.317 5.27436 183.648 4.87154L183.949 4.50478C185.111 3.08736 185.692 2.37858 186.399 2.49477C187.106 2.61095 187.47 3.47514 188.199 5.20352L188.387 5.65065C188.594 6.14179 188.698 6.38739 188.887 6.56931C189.076 6.75116 189.329 6.84879 189.836 7.04409L190.297 7.22182C192.08 7.90893 192.972 8.25244 193.1 8.93966C193.229 9.62694 192.509 10.2027 191.07 11.3543L190.698 11.6522C190.289 11.9795 190.084 12.1431 189.972 12.3685C189.859 12.594 189.85 12.8557 189.833 13.3792L189.817 13.8558C189.756 15.6979 189.726 16.619 189.099 16.9275C188.471 17.236 187.662 16.7277 186.044 15.7111L185.626 15.4481C185.166 15.1592 184.936 15.0147 184.677 14.9721C184.418 14.9296 184.16 14.9937 183.642 15.122L183.171 15.2388C181.351 15.6902 180.441 15.9159 179.924 15.4193C179.408 14.9228 179.628 14.0328 180.067 12.2529L180.181 11.7924C180.305 11.2867 180.368 11.0338 180.321 10.782C180.274 10.5303 180.122 10.3082 179.82 9.86396L179.544 9.45957Z" fill="white"/>
<path d="M14.5445 411.46C13.48 409.896 12.9478 409.115 13.2561 408.499C13.5644 407.884 14.5091 407.842 16.3984 407.759L16.8872 407.737C17.4241 407.714 17.6925 407.702 17.9223 407.589C18.1522 407.476 18.3173 407.274 18.6477 406.872L18.9485 406.505C20.1111 405.087 20.6925 404.379 21.3993 404.495C22.1061 404.611 22.4704 405.475 23.1988 407.204L23.3873 407.651C23.5943 408.142 23.6978 408.387 23.8869 408.569C24.0761 408.751 24.3294 408.849 24.8361 409.044L25.2973 409.222C27.0803 409.909 27.9718 410.252 28.1003 410.94C28.2288 411.627 27.5093 412.203 26.0703 413.354L25.6979 413.652C25.289 413.979 25.0845 414.143 24.9715 414.369C24.8586 414.594 24.85 414.856 24.8328 415.379L24.8171 415.856C24.7564 417.698 24.726 418.619 24.0987 418.928C23.4713 419.236 22.6623 418.728 21.0445 417.711L20.6259 417.448C20.1661 417.159 19.9363 417.015 19.6773 416.972C19.4184 416.93 19.1597 416.994 18.6424 417.122L18.1714 417.239C16.351 417.69 15.4407 417.916 14.9244 417.419C14.4082 416.923 14.6277 416.033 15.0669 414.253L15.1805 413.792C15.3053 413.287 15.3677 413.034 15.3207 412.782C15.2736 412.53 15.1223 412.308 14.8199 411.864L14.5445 411.46Z" fill="white"/>
<path d="M352.544 345.46C351.48 343.896 350.948 343.115 351.256 342.499C351.564 341.884 352.509 341.842 354.398 341.759L354.887 341.737C355.424 341.714 355.692 341.702 355.922 341.589C356.152 341.476 356.317 341.274 356.648 340.872L356.949 340.505C358.111 339.087 358.692 338.379 359.399 338.495C360.106 338.611 360.47 339.475 361.199 341.204L361.387 341.651C361.594 342.142 361.698 342.387 361.887 342.569C362.076 342.751 362.329 342.849 362.836 343.044L363.297 343.222C365.08 343.909 365.972 344.252 366.1 344.94C366.229 345.627 365.509 346.203 364.07 347.354L363.698 347.652C363.289 347.979 363.084 348.143 362.972 348.369C362.859 348.594 362.85 348.856 362.833 349.379L362.817 349.856C362.756 351.698 362.726 352.619 362.099 352.928C361.471 353.236 360.662 352.728 359.044 351.711L358.626 351.448C358.166 351.159 357.936 351.015 357.677 350.972C357.418 350.93 357.16 350.994 356.642 351.122L356.171 351.239C354.351 351.69 353.441 351.916 352.924 351.419C352.408 350.923 352.628 350.033 353.067 348.253L353.181 347.792C353.305 347.287 353.368 347.034 353.321 346.782C353.274 346.53 353.122 346.308 352.82 345.864L352.544 345.46Z" fill="white"/>
<path d="M310.544 431.46C309.48 429.896 308.948 429.115 309.256 428.499C309.564 427.884 310.509 427.842 312.398 427.759L312.887 427.737C313.424 427.714 313.692 427.702 313.922 427.589C314.152 427.476 314.317 427.274 314.648 426.872L314.949 426.505C316.111 425.087 316.692 424.379 317.399 424.495C318.106 424.611 318.47 425.475 319.199 427.204L319.387 427.651C319.594 428.142 319.698 428.387 319.887 428.569C320.076 428.751 320.329 428.849 320.836 429.044L321.297 429.222C323.08 429.909 323.972 430.252 324.1 430.94C324.229 431.627 323.509 432.203 322.07 433.354L321.698 433.652C321.289 433.979 321.084 434.143 320.972 434.369C320.859 434.594 320.85 434.856 320.833 435.379L320.817 435.856C320.756 437.698 320.726 438.619 320.099 438.928C319.471 439.236 318.662 438.728 317.044 437.711L316.626 437.448C316.166 437.159 315.936 437.015 315.677 436.972C315.418 436.93 315.16 436.994 314.642 437.122L314.171 437.239C312.351 437.69 311.441 437.916 310.924 437.419C310.408 436.923 310.628 436.033 311.067 434.253L311.181 433.792C311.305 433.287 311.368 433.034 311.321 432.782C311.274 432.53 311.122 432.308 310.82 431.864L310.544 431.46Z" fill="white"/>
</svg>
