<svg width="1440" height="119" viewBox="0 0 1440 119" fill="none" xmlns="http://www.w3.org/2000/svg">
<path d="M0 32.6525L40 25.4072C80 18.0627 160 3.57222 240 4.66397C320 5.85497 400 22.7275 480 32.454C560 42.2797 640 44.8602 720 39.1037C800 33.3472 880 19.0552 960 12.0085C1040 4.8625 1120 4.86247 1200 4.16772C1280 3.57222 1360 2.18275 1400 1.58725L1440 0.892487V119H1400C1360 119 1280 119 1200 119C1120 119 1040 119 960 119C880 119 800 119 720 119C640 119 560 119 480 119C400 119 320 119 240 119C160 119 80 119 40 119H0V32.6525Z" fill="#1A4F92"/>
</svg>
