<svg width="1440" height="367" viewBox="0 0 1440 367" fill="none" xmlns="http://www.w3.org/2000/svg">
<path d="M0 5L131 0L262 21L393 15L524 64L655 32L785 84L916 3L1047 58L1178 41L1309 26L1440 24V367H1309H1178H1047H916H785H655H524H393H262H131H0V5Z" fill="#1A4F92"/>
<path d="M0 50L131 109L262 52L393 85L524 88L655 62L785 93L916 89L1047 50L1178 73L1309 93L1440 81V367H1309H1178H1047H916H785H655H524H393H262H131H0V50Z" fill="#075A99"/>
<path d="M0 129L131 132L262 112L393 76L524 129L655 109L785 125L916 110L1047 74L1178 89L1309 71L1440 120V367H1309H1178H1047H916H785H655H524H393H262H131H0V129Z" fill="#00649F"/>
<path d="M0 123L131 148L262 108L393 149L524 108L655 165L785 169L916 111L1047 126L1178 111L1309 162L1440 133V367H1309H1178H1047H916H785H655H524H393H262H131H0V123Z" fill="#006EA3"/>
<path d="M0 183L131 164L262 154L393 181L524 144L655 163L785 186L916 153L1047 198L1178 176L1309 152L1440 184V367H1309H1178H1047H916H785H655H524H393H262H131H0V183Z" fill="#0078A7"/>
<path d="M0 178L131 211L262 197L393 172L524 215L655 229L785 179L916 174L1047 195L1178 206L1309 184L1440 226V367H1309H1178H1047H916H785H655H524H393H262H131H0V178Z" fill="#0082AB"/>
<path d="M0 245L131 238L262 233L393 239L524 232L655 240L785 232L916 214L1047 210L1178 259L1309 242L1440 259V367H1309H1178H1047H916H785H655H524H393H262H131H0V245Z" fill="#008BAC"/>
<path d="M0 285L131 275L262 273L393 282L524 247L655 243L785 256L916 262L1047 244L1178 249L1309 271L1440 261V367H1309H1178H1047H916H785H655H524H393H262H131H0V285Z" fill="#0094AB"/>
<path d="M0 311L131 307L262 311L393 317L524 298H655L785 290L916 283H1047L1178 303L1309 282L1440 313V367H1309H1178H1047H916H785H655H524H393H262H131H0V311Z" fill="#009DA8"/>
<path d="M0 317L131 332L262 321L393 345L524 312L655 328L785 317L916 313L1047 346L1178 311H1309L1440 344V367H1309H1178H1047H916H785H655H524H393H262H131H0V317Z" fill="#00A5A4"/>
</svg>
