<svg width="1440" height="80" viewBox="0 0 1440 80" fill="none" xmlns="http://www.w3.org/2000/svg">
<path d="M0 34.345L40 32.36C80 30.375 160 26.405 240 21.1447C320 15.7852 400 9.23471 480 6.35646C560 3.57746 640 4.56998 720 3.08123C800 1.59248 880 -2.37754 960 2.38646C1040 7.24971 1120 20.7477 1200 26.6035C1280 32.36 1360 30.375 1400 29.3825L1440 28.39V80H1400C1360 80 1280 80 1200 80C1120 80 1040 80 960 80C880 80 800 80 720 80C640 80 560 80 480 80C400 80 320 80 240 80C160 80 80 80 40 80H0V34.345Z" fill="#00A5A4"/>
</svg>
