<svg xmlns="http://www.w3.org/2000/svg" version="1.1" xmlns:xlink="http://www.w3.org/1999/xlink" width="32" height="32" x="0" y="0" viewBox="0 0 152 152" style="enable-background:new 0 0 512 512" xml:space="preserve" class=""><circle r="76" cx="76" cy="76" fill="#F50000" shape="circle" transform="matrix(0.88,0,0,0.88,9.120000000000005,9.120000000000005)"></circle><g transform="matrix(0.9999999999999998,0,0,0.9999999999999998,1.4210854715202004e-14,1.4210854715202004e-14)"><g data-name="Layer 2"><g data-name="02.YouTube"><path fill="#FFFFFF" d="M100.87 47.41H51.13A15.13 15.13 0 0 0 36 62.55v26.9a15.13 15.13 0 0 0 15.13 15.14h49.74A15.13 15.13 0 0 0 116 89.45v-26.9a15.13 15.13 0 0 0-15.13-15.14zM65.46 88.26V63.74L86.54 76z" opacity="1" data-original="#ffffff" class=""></path></g></g></g></svg>