<svg width="188" height="228" viewBox="0 0 188 228" fill="none" xmlns="http://www.w3.org/2000/svg">
<path d="M188.285 0C144.605 0 109.011 11.8408 109.011 26.3571C109.011 40.8744 144.605 52.6967 188.285 52.6967C231.964 52.6967 267.558 40.8744 267.558 26.3571C267.558 11.8397 231.964 0 188.285 0ZM188.285 7.22867C220.381 7.22867 245.805 15.6892 245.805 26.3571C245.805 37.025 220.381 45.7081 188.285 45.7081C156.187 45.7081 130.061 37.025 130.061 26.3571C130.061 15.6903 156.187 7.22758 188.285 7.22867ZM48.7599 15.3264C38.1531 15.2751 22.9406 23.2861 14.8698 35.8875C-19.8134 90.031 7.19381 232.123 85.2565 227.908C67.633 200.362 50.1729 168.997 39.824 135.845C60.9198 175.395 97.7601 209.812 134.217 201.414C108.572 179.49 81.3132 153.805 62.1021 124.849C90.1498 157.132 130.483 182.598 160.649 171.494C136.825 156.991 111.333 140.111 89.5106 120.621C121.268 141.014 159.271 154.085 179.422 141.215C141.223 129.721 103.832 111.935 79.2482 92.2515C66.1824 81.7898 56.6642 70.7618 53.0396 59.5179C51.2294 53.8953 51.0307 48.1724 52.6648 42.6393C52.6808 42.5875 52.6992 42.5379 52.7152 42.4866C52.7208 42.4626 52.7329 42.4413 52.7393 42.4178C55.9833 30.8165 64.7887 23.0979 56.3438 17.3384C54.3541 15.9816 51.73 15.3417 48.7583 15.327L48.7599 15.3264ZM327.233 15.3264C324.261 15.3411 321.663 15.9811 319.673 17.3384C313.124 21.8044 316.937 27.4662 320.498 35.1892C325.426 42.929 326.22 51.3192 323.578 59.5173C319.954 70.7613 310.409 81.7893 297.345 92.2509C272.676 112.003 235.132 129.844 196.796 141.334C216.997 153.995 254.854 140.947 286.508 120.619C264.685 140.111 239.193 156.991 215.368 171.492C245.535 182.597 285.868 157.132 313.917 124.848C294.705 153.805 267.446 179.49 241.802 201.414C278.259 209.813 315.075 175.396 336.17 135.845C325.823 168.998 308.387 200.363 290.763 227.908C368.826 232.123 395.808 90.0316 361.126 35.8875C353.054 23.2867 337.841 15.2762 327.234 15.3275L327.233 15.3264ZM309.435 55.6815C229.017 92.9039 148.648 100.669 68.1344 58.6646C71.3544 67.2053 79.2603 76.5224 90.6632 85.6535C113.83 104.202 151.122 121.867 188.31 132.741C225.497 121.867 262.789 104.202 285.956 85.6535C297.955 76.0445 306.091 66.2348 308.96 57.3351C309.139 56.7786 309.294 56.2292 309.435 55.6809L309.435 55.6815Z" fill="white"/>
</svg>
