<svg width="1440" height="119" viewBox="0 0 1440 119" fill="none" xmlns="http://www.w3.org/2000/svg">
<path d="M0 31.76L40 24.5148C80 17.1703 160 2.67974 240 3.77149C320 4.96249 400 21.835 480 31.5615C560 41.3872 640 43.9678 720 38.2113C800 32.4548 880 18.1628 960 11.116C1040 3.97001 1120 3.96999 1200 3.27524C1280 2.67974 1360 1.29026 1400 0.694762L1440 0V118.108H1400C1360 118.108 1280 118.108 1200 118.108C1120 118.108 1040 118.108 960 118.108C880 118.108 800 118.108 720 118.108C640 118.108 560 118.108 480 118.108C400 118.108 320 118.108 240 118.108C160 118.108 80 118.108 40 118.108H0V31.76Z" fill="#1A4F92"/>
<path d="M0 72.4526L40 70.4676C80 68.4826 160 64.5126 240 59.2524C320 53.8929 400 47.3424 480 44.4641C560 41.6851 640 42.6776 720 41.1889C800 39.7001 880 35.7301 960 40.4941C1040 45.3573 1120 58.8554 1200 64.7111C1280 70.4676 1360 68.4826 1400 67.4901L1440 66.4976V118.108H1400C1360 118.108 1280 118.108 1200 118.108C1120 118.108 1040 118.108 960 118.108C880 118.108 800 118.108 720 118.108C640 118.108 560 118.108 480 118.108C400 118.108 320 118.108 240 118.108C160 118.108 80 118.108 40 118.108H0V72.4526Z" fill="#00A5A4"/>
</svg>
