<svg width="249" height="228" viewBox="0 0 249 228" fill="none" xmlns="http://www.w3.org/2000/svg">
<path fill-rule="evenodd" clip-rule="evenodd" d="M188 202.667C120.392 202.667 63.4067 167.753 27.4786 114C63.4067 60.2467 120.392 25.3333 188 25.3333C255.608 25.3333 312.594 60.2467 348.522 114C312.594 167.753 255.608 202.667 188 202.667ZM188 0C107.984 0 41.5202 43.2283 1.90507 107.287C-0.635035 111.394 -0.635025 116.606 1.9051 120.714C41.5202 184.771 107.984 228 188 228C268.016 228 334.48 184.771 374.096 120.714C376.635 116.606 376.635 111.394 374.096 107.287C334.48 43.2283 268.016 0 188 0ZM188 164.667C215.688 164.667 238.134 141.982 238.134 114C238.134 86.0176 215.688 63.3333 188 63.3333C160.312 63.3333 137.867 86.0176 137.867 114C137.867 141.982 160.312 164.667 188 164.667Z" fill="white"/>
</svg>
