<svg width="258" height="239" viewBox="0 0 258 239" fill="none" xmlns="http://www.w3.org/2000/svg">
<path d="M197 0C88.1972 0 0 53.5003 0 119.5C0 185.5 88.1972 239 197 239C305.803 239 394 185.5 394 119.5C394 53.5003 305.803 0 197 0ZM197 208.161C116.222 208.161 50.8387 168.509 50.8387 119.5C50.8387 70.5002 116.206 30.8387 197 30.8387C277.778 30.8387 343.161 70.4905 343.161 119.5C343.161 168.5 277.794 208.161 197 208.161ZM197 57.8226C140.847 57.8226 95.3226 85.4377 95.3226 119.5C95.3226 153.562 140.847 181.177 197 181.177C253.153 181.177 298.677 153.562 298.677 119.5C298.677 85.4377 253.153 57.8226 197 57.8226ZM197 150.339C168.967 150.339 146.161 136.505 146.161 119.5C146.161 102.495 168.967 88.6613 197 88.6613C225.033 88.6613 247.839 102.495 247.839 119.5C247.839 136.505 225.033 150.339 197 150.339Z" fill="white"/>
</svg>
